<?xml version="1.0" encoding="UTF-8"?>
<!DOCTYPE svg PUBLIC "-//W3C//DTD SVG 20010904//EN"
"http://www.w3.org/TR/2001/REC-SVG-20010904/DTD/svg10.dtd">
<svg version="1.2" baseProfile="tiny"
	 xmlns="http://www.w3.org/2000/svg"
	 xmlns:xlink="http://www.w3.org/1999/xlink" width="700" height="1800" >
<!-- 	0	-1	1	1	0	20	euphyllophyte	-->
<!-- 	1	0	2	2,156	1	19	seedplants	-->
<!-- 	2	1	2	3,147	2	18	magnoliales_to_asterales	-->
<!-- 	3	2	2	4,140	3	17	poales_to_asterales	-->
<!-- 	4	3	2	5,129	4	16	eudicots	-->
<!-- 	5	4	3	6,127,128	5	15	sabiales_to_asterales	-->
<!-- 	6	5	3	7,125,126	6	14	trochodendrales_to_asterales	-->
<!-- 	7	6	2	8,62	7	13	.	-->
<!-- 	8	7	2	9,61	8	12	.	-->
<!-- 	9	8	2	10,60	9	11	.	-->
<!-- 	10	9	2	11,59	10	10	asterids	-->
<!-- 	11	10	2	12,43	11	9	ericales_to_asterales	-->
<!-- 	12	11	2	13,23	12	8	.	-->
<!-- 	13	12	2	14,22	13	4	campanulids	-->
<!-- 	14	13	2	15,21	14	3	.	-->
<!-- 	15	14	2	16,20	15	2	.	-->
<!-- 	16	15	3	17,18,19	16	1	dipsacales	-->
<!-- 	17	16		.	17	0	CAPRIFOLIACEAE	-->
<!-- 	18	16		.	17	0	ADOXACEAE	-->
<!-- 	19	16		.	17	0	DIPSACALESGEN	-->
<!-- 	20	15		.	16	0	ARALIACEAE	-->
<!-- 	21	14		.	15	0	ASTERACEAE	-->
<!-- 	22	13		.	14	0	AQUIFOLIACEAE	-->
<!-- 	23	12	2	24,42	13	7	lamiids	-->
<!-- 	24	23	3	25,36,41	14	6	.	-->
<!-- 	25	24	2	26,35	15	5	.	-->
<!-- 	26	25	2	27,28	16	4	.	-->
<!-- 	27	26		.	17	0	OLEACEAE	-->
<!-- 	28	26	2	29,34	17	3	.	-->
<!-- 	29	28	2	30,33	18	2	.	-->
<!-- 	30	29	2	31,32	19	1	.	-->
<!-- 	31	30		.	20	0	VERBENACEAE	-->
<!-- 	32	30		.	20	0	BIGNONIACEAE	-->
<!-- 	33	29		.	19	0	LAMIACEAE	-->
<!-- 	34	28		.	18	0	SCROPHULARIACEAE	-->
<!-- 	35	25		.	16	0	SOLANACEAE	-->
<!-- 	36	24	2	37,38	15	2	gentianales	-->
<!-- 	37	36		.	16	0	RUBIACEAE	-->
<!-- 	38	36	2	39,40	16	1	.	-->
<!-- 	39	38		.	17	0	LOGANIACEAE	-->
<!-- 	40	38		.	17	0	APOCYNACEAE	-->
<!-- 	41	24		.	15	0	BORAGINACEAE	-->
<!-- 	42	23		.	14	0	EUCOMMIACEAE	-->
<!-- 	43	11	2	44,56	12	5	.	-->
<!-- 	44	43	3	45,52,55	13	4	.	-->
<!-- 	45	44	2	46,51	14	3	.	-->
<!-- 	46	45	2	47,50	15	2	.	-->
<!-- 	47	46	2	48,49	16	1	.	-->
<!-- 	48	47		.	17	0	ERICACEAE	-->
<!-- 	49	47		.	17	0	CYRILLACEAE	-->
<!-- 	50	46		.	16	0	CLETHRACEAE	-->
<!-- 	51	45		.	15	0	ACTINIDIACEAE	-->
<!-- 	52	44	2	53,54	14	1	.	-->
<!-- 	53	52		.	15	0	STYRACACEAE	-->
<!-- 	54	52		.	15	0	SYMPLOCACEAE	-->
<!-- 	55	44		.	14	0	THEACEAE	-->
<!-- 	56	43	2	57,58	13	1	.	-->
<!-- 	57	56		.	14	0	EBENACEAE	-->
<!-- 	58	56		.	14	0	SAPOTACEAE	-->
<!-- 	59	10		.	11	0	CORNACEAE	-->
<!-- 	60	9		.	10	0	POLYGONACEAE	-->
<!-- 	61	8		.	9	0	SANTALACEAE	-->
<!-- 	62	7	2	63,120	8	11	.	-->
<!-- 	63	62	2	64,119	9	10	rosids	-->
<!-- 	64	63	2	65,99	10	9	.	-->
<!-- 	65	64	2	66,91	11	8	.	-->
<!-- 	66	65	2	67,90	12	7	.	-->
<!-- 	67	66	2	68,81	13	6	.	-->
<!-- 	68	67	2	69,70	14	5	rosales	-->
<!-- 	69	68		.	15	0	ROSACEAE	-->
<!-- 	70	68	2	71,78	15	4	.	-->
<!-- 	71	70	2	72,73	16	3	.	-->
<!-- 	72	71		.	17	0	ULMACEAE	-->
<!-- 	73	71	2	74,77	17	2	.	-->
<!-- 	74	73	2	75,76	18	1	.	-->
<!-- 	75	74		.	19	0	MORACEAE	-->
<!-- 	76	74		.	19	0	URTICACEAE	-->
<!-- 	77	73		.	18	0	CANNABACEAE	-->
<!-- 	78	70	2	79,80	16	1	.	-->
<!-- 	79	78		.	17	0	ELAEAGNACEAE	-->
<!-- 	80	78		.	17	0	RHAMNACEAE	-->
<!-- 	81	67	2	82,89	14	4	.	-->
<!-- 	82	81	2	83,84	15	3	.	-->
<!-- 	83	82		.	16	0	FAGACEAE	-->
<!-- 	84	82	2	85,86	16	2	.	-->
<!-- 	85	84		.	17	0	BETULACEAE	-->
<!-- 	86	84	2	87,88	17	1	.	-->
<!-- 	87	86		.	18	0	JUGLANDACEAE	-->
<!-- 	88	86		.	18	0	MYRICACEAE	-->
<!-- 	89	81		.	15	0	CORIARIACEAE	-->
<!-- 	90	66		.	13	0	FABACEAE	-->
<!-- 	91	65	2	92,98	12	3	celastrales_to_malpighiales	-->
<!-- 	92	91	2	93,97	13	2	.	-->
<!-- 	93	92	3	94,95,96	14	1	malpighiales	-->
<!-- 	94	93		.	15	0	SALICACEAE	-->
<!-- 	95	93		.	15	0	EUPHORBIACEAE	-->
<!-- 	96	93		.	15	0	CLUSIACEAE	-->
<!-- 	97	92		.	14	0	CEPHALOTACEAE	-->
<!-- 	98	91		.	13	0	CELASTRACEAE	-->
<!-- 	99	64	2	100,116	11	6	malvids	-->
<!-- 	100	99	2	101,113	12	5	.	-->
<!-- 	101	100	2	102,110	13	4	.	-->
<!-- 	102	101	2	103,109	14	3	.	-->
<!-- 	103	102	2	104,105	15	2	.	-->
<!-- 	104	103		.	16	0	SAPINDACEAE	-->
<!-- 	105	103	3	106,107,108	16	1	.	-->
<!-- 	106	105		.	17	0	RUTACEAE	-->
<!-- 	107	105		.	17	0	SIMAROUBACEAE	-->
<!-- 	108	105		.	17	0	MELIACEAE	-->
<!-- 	109	102		.	15	0	ANACARDIACEAE	-->
<!-- 	110	101	2	111,112	14	1	.	-->
<!-- 	111	110		.	15	0	THYMELAEACEAE	-->
<!-- 	112	110		.	15	0	MALVACEAE	-->
<!-- 	113	100	2	114,115	13	1	.	-->
<!-- 	114	113		.	14	0	STAPHYLEACEAE	-->
<!-- 	115	113		.	14	0	STACHYURACEAE	-->
<!-- 	116	99	2	117,118	12	1	.	-->
<!-- 	117	116		.	13	0	LYTHRACEAE	-->
<!-- 	118	116		.	13	0	GERANIACEAE	-->
<!-- 	119	63		.	10	0	VITACEAE	-->
<!-- 	120	62	2	121,122	9	2	.	-->
<!-- 	121	120		.	10	0	SAXIFRAGACEAE	-->
<!-- 	122	120	2	123,124	10	1	.	-->
<!-- 	123	122		.	11	0	HAMAMELIDACEAE	-->
<!-- 	124	122		.	11	0	CERCIDIPHYLLACEAE	-->
<!-- 	125	6		.	7	0	BUXACEAE	-->
<!-- 	126	6		.	7	0	TROCHODENDRACEAE	-->
<!-- 	127	5		.	6	0	PLATANACEAE	-->
<!-- 	128	5		.	6	0	SABIACEAE	-->
<!-- 	129	4	2	130,139	5	5	ranunculales	-->
<!-- 	130	129	2	131,138	6	4	.	-->
<!-- 	131	130	2	132,137	7	3	.	-->
<!-- 	132	131	2	133,136	8	2	.	-->
<!-- 	133	132	2	134,135	9	1	.	-->
<!-- 	134	133		.	10	0	BERBERIDACEAE	-->
<!-- 	135	133		.	10	0	RANUNCULACEAE	-->
<!-- 	136	132		.	9	0	MENISPERMACEAE	-->
<!-- 	137	131		.	8	0	LARDIZABALACEAE	-->
<!-- 	138	130		.	7	0	PAPAVERACEAE	-->
<!-- 	139	129		.	6	0	EUPTELEACEAE	-->
<!-- 	140	3	2	141,146	4	3	.	-->
<!-- 	141	140	2	142,143	5	2	.	-->
<!-- 	142	141		.	6	0	POACEAE	-->
<!-- 	143	141	2	144,145	6	1	.	-->
<!-- 	144	143		.	7	0	LILIACEAE	-->
<!-- 	145	143		.	7	0	SMILACACEAE	-->
<!-- 	146	140		.	5	0	ARACEAE	-->
<!-- 	147	2	2	148,155	3	3	magnoliids	-->
<!-- 	148	147	2	149,152	4	2	.	-->
<!-- 	149	148	2	150,151	5	1	.	-->
<!-- 	150	149		.	6	0	MAGNOLIACEAE	-->
<!-- 	151	149		.	6	0	ANNONACEAE	-->
<!-- 	152	148	2	153,154	5	1	laurales	-->
<!-- 	153	152		.	6	0	LAURACEAE	-->
<!-- 	154	152		.	6	0	CALYCANTHACEAE	-->
<!-- 	155	147		.	4	0	ARISTOLOCHIACEAE	-->
<!-- 	156	1	2	157,164	2	4	.	-->
<!-- 	157	156	2	158,163	3	3	.	-->
<!-- 	158	157	2	159,160	4	2	pinales	-->
<!-- 	159	158		.	5	0	PINACEAE	-->
<!-- 	160	158	2	161,162	5	1	.	-->
<!-- 	161	160		.	6	0	CUPRESSACEAE	-->
<!-- 	162	160		.	6	0	TAXACEAE	-->
<!-- 	163	157		.	4	0	EPHEDRACEAE	-->
<!-- 	164	156		.	3	0	GINKGOACEAE	-->
<text x="480" y="35" font-size="15">CAPRIFOLIACEAE</text>
<a xlink:href="../map?method=mapLo&amp;fam=CAPRIFOLIACEAE" xlink:title="CAPRIFOLIACEAE">
<circle cx="470" cy="30" r="5" style="fill:red;stroke:black;stroke-width:0;"/>
</a>
<path style="stroke:black;;stroke-width:1;stroke-linecap:square" d="M470 30 450 30"/>
<text x="480" y="55" font-size="15">ADOXACEAE</text>
<a xlink:href="../map?method=mapLo&amp;fam=ADOXACEAE" xlink:title="ADOXACEAE">
<circle cx="470" cy="50" r="5" style="fill:red;stroke:black;stroke-width:0;"/>
</a>
<path style="stroke:black;;stroke-width:1;stroke-linecap:square" d="M470 50 450 50"/>
<text x="480" y="75" font-size="15">DIPSACALES</text>
<circle cx="470" cy="70" r="5" style="fill:red;stroke:black;stroke-width:0;"/>
<path style="stroke:black;;stroke-width:1;stroke-linecap:square" d="M470 70 450 70"/>
<text x="480" y="95" font-size="15">ARALIACEAE</text>
<a xlink:href="../map?method=mapLo&amp;fam=ARALIACEAE" xlink:title="ARALIACEAE">
<circle cx="470" cy="90" r="5" style="fill:red;stroke:black;stroke-width:0;"/>
</a>
<path style="stroke:black;;stroke-width:1;stroke-linecap:square" d="M470 90 430 90"/>
<text x="480" y="115" font-size="15">ASTERACEAE</text>
<a xlink:href="../map?method=mapLo&amp;fam=ASTERACEAE" xlink:title="ASTERACEAE">
<circle cx="470" cy="110" r="5" style="fill:red;stroke:black;stroke-width:0;"/>
</a>
<path style="stroke:black;;stroke-width:1;stroke-linecap:square" d="M470 110 410 110"/>
<text x="480" y="135" font-size="15">AQUIFOLIACEAE</text>
<a xlink:href="../map?method=mapLo&amp;fam=AQUIFOLIACEAE" xlink:title="AQUIFOLIACEAE">
<circle cx="470" cy="130" r="5" style="fill:red;stroke:black;stroke-width:0;"/>
</a>
<path style="stroke:black;;stroke-width:1;stroke-linecap:square" d="M470 130 390 130"/>
<text x="480" y="155" font-size="15">OLEACEAE</text>
<a xlink:href="../map?method=mapLo&amp;fam=OLEACEAE" xlink:title="OLEACEAE">
<circle cx="470" cy="150" r="5" style="fill:red;stroke:black;stroke-width:0;"/>
</a>
<path style="stroke:black;;stroke-width:1;stroke-linecap:square" d="M470 150 390 150"/>
<text x="480" y="175" font-size="15">VERBENACEAE</text>
<a xlink:href="../map?method=mapLo&amp;fam=VERBENACEAE" xlink:title="VERBENACEAE">
<circle cx="470" cy="170" r="5" style="fill:red;stroke:black;stroke-width:0;"/>
</a>
<path style="stroke:black;;stroke-width:1;stroke-linecap:square" d="M470 170 450 170"/>
<text x="480" y="195" font-size="15">BIGNONIACEAE</text>
<a xlink:href="../map?method=mapLo&amp;fam=BIGNONIACEAE" xlink:title="BIGNONIACEAE">
<circle cx="470" cy="190" r="5" style="fill:red;stroke:black;stroke-width:0;"/>
</a>
<path style="stroke:black;;stroke-width:1;stroke-linecap:square" d="M470 190 450 190"/>
<text x="480" y="215" font-size="15">LAMIACEAE</text>
<a xlink:href="../map?method=mapLo&amp;fam=LAMIACEAE" xlink:title="LAMIACEAE">
<circle cx="470" cy="210" r="5" style="fill:red;stroke:black;stroke-width:0;"/>
</a>
<path style="stroke:black;;stroke-width:1;stroke-linecap:square" d="M470 210 430 210"/>
<text x="480" y="235" font-size="15">SCROPHULARIACEAE</text>
<a xlink:href="../map?method=mapLo&amp;fam=SCROPHULARIACEAE" xlink:title="SCROPHULARIACEAE">
<circle cx="470" cy="230" r="5" style="fill:red;stroke:black;stroke-width:0;"/>
</a>
<path style="stroke:black;;stroke-width:1;stroke-linecap:square" d="M470 230 410 230"/>
<text x="480" y="255" font-size="15">SOLANACEAE</text>
<a xlink:href="../map?method=mapLo&amp;fam=SOLANACEAE" xlink:title="SOLANACEAE">
<circle cx="470" cy="250" r="5" style="fill:red;stroke:black;stroke-width:0;"/>
</a>
<path style="stroke:black;;stroke-width:1;stroke-linecap:square" d="M470 250 370 250"/>
<text x="480" y="275" font-size="15">RUBIACEAE</text>
<a xlink:href="../map?method=mapLo&amp;fam=RUBIACEAE" xlink:title="RUBIACEAE">
<circle cx="470" cy="270" r="5" style="fill:red;stroke:black;stroke-width:0;"/>
</a>
<path style="stroke:black;;stroke-width:1;stroke-linecap:square" d="M470 270 430 270"/>
<text x="480" y="295" font-size="15">LOGANIACEAE</text>
<a xlink:href="../map?method=mapLo&amp;fam=LOGANIACEAE" xlink:title="LOGANIACEAE">
<circle cx="470" cy="290" r="5" style="fill:red;stroke:black;stroke-width:0;"/>
</a>
<path style="stroke:black;;stroke-width:1;stroke-linecap:square" d="M470 290 450 290"/>
<text x="480" y="315" font-size="15">APOCYNACEAE</text>
<a xlink:href="../map?method=mapLo&amp;fam=APOCYNACEAE" xlink:title="APOCYNACEAE">
<circle cx="470" cy="310" r="5" style="fill:red;stroke:black;stroke-width:0;"/>
</a>
<path style="stroke:black;;stroke-width:1;stroke-linecap:square" d="M470 310 450 310"/>
<text x="480" y="335" font-size="15">BORAGINACEAE</text>
<a xlink:href="../map?method=mapLo&amp;fam=BORAGINACEAE" xlink:title="BORAGINACEAE">
<circle cx="470" cy="330" r="5" style="fill:red;stroke:black;stroke-width:0;"/>
</a>
<path style="stroke:black;;stroke-width:1;stroke-linecap:square" d="M470 330 350 330"/>
<text x="480" y="355" font-size="15">EUCOMMIACEAE</text>
<a xlink:href="../map?method=mapLo&amp;fam=EUCOMMIACEAE" xlink:title="EUCOMMIACEAE">
<circle cx="470" cy="350" r="5" style="fill:red;stroke:black;stroke-width:0;"/>
</a>
<path style="stroke:black;;stroke-width:1;stroke-linecap:square" d="M470 350 330 350"/>
<text x="480" y="375" font-size="15">ERICACEAE</text>
<a xlink:href="../map?method=mapLo&amp;fam=ERICACEAE" xlink:title="ERICACEAE">
<circle cx="470" cy="370" r="5" style="fill:red;stroke:black;stroke-width:0;"/>
</a>
<path style="stroke:black;;stroke-width:1;stroke-linecap:square" d="M470 370 450 370"/>
<text x="480" y="395" font-size="15">CYRILLACEAE</text>
<a xlink:href="../map?method=mapLo&amp;fam=CYRILLACEAE" xlink:title="CYRILLACEAE">
<circle cx="470" cy="390" r="5" style="fill:red;stroke:black;stroke-width:0;"/>
</a>
<path style="stroke:black;;stroke-width:1;stroke-linecap:square" d="M470 390 450 390"/>
<text x="480" y="415" font-size="15">CLETHRACEAE</text>
<a xlink:href="../map?method=mapLo&amp;fam=CLETHRACEAE" xlink:title="CLETHRACEAE">
<circle cx="470" cy="410" r="5" style="fill:red;stroke:black;stroke-width:0;"/>
</a>
<path style="stroke:black;;stroke-width:1;stroke-linecap:square" d="M470 410 430 410"/>
<text x="480" y="435" font-size="15">ACTINIDIACEAE</text>
<a xlink:href="../map?method=mapLo&amp;fam=ACTINIDIACEAE" xlink:title="ACTINIDIACEAE">
<circle cx="470" cy="430" r="5" style="fill:red;stroke:black;stroke-width:0;"/>
</a>
<path style="stroke:black;;stroke-width:1;stroke-linecap:square" d="M470 430 410 430"/>
<text x="480" y="455" font-size="15">STYRACACEAE</text>
<a xlink:href="../map?method=mapLo&amp;fam=STYRACACEAE" xlink:title="STYRACACEAE">
<circle cx="470" cy="450" r="5" style="fill:red;stroke:black;stroke-width:0;"/>
</a>
<path style="stroke:black;;stroke-width:1;stroke-linecap:square" d="M470 450 450 450"/>
<text x="480" y="475" font-size="15">SYMPLOCACEAE</text>
<a xlink:href="../map?method=mapLo&amp;fam=SYMPLOCACEAE" xlink:title="SYMPLOCACEAE">
<circle cx="470" cy="470" r="5" style="fill:red;stroke:black;stroke-width:0;"/>
</a>
<path style="stroke:black;;stroke-width:1;stroke-linecap:square" d="M470 470 450 470"/>
<text x="480" y="495" font-size="15">THEACEAE</text>
<a xlink:href="../map?method=mapLo&amp;fam=THEACEAE" xlink:title="THEACEAE">
<circle cx="470" cy="490" r="5" style="fill:red;stroke:black;stroke-width:0;"/>
</a>
<path style="stroke:black;;stroke-width:1;stroke-linecap:square" d="M470 490 390 490"/>
<text x="480" y="515" font-size="15">EBENACEAE</text>
<a xlink:href="../map?method=mapLo&amp;fam=EBENACEAE" xlink:title="EBENACEAE">
<circle cx="470" cy="510" r="5" style="fill:red;stroke:black;stroke-width:0;"/>
</a>
<path style="stroke:black;;stroke-width:1;stroke-linecap:square" d="M470 510 450 510"/>
<text x="480" y="535" font-size="15">SAPOTACEAE</text>
<a xlink:href="../map?method=mapLo&amp;fam=SAPOTACEAE" xlink:title="SAPOTACEAE">
<circle cx="470" cy="530" r="5" style="fill:red;stroke:black;stroke-width:0;"/>
</a>
<path style="stroke:black;;stroke-width:1;stroke-linecap:square" d="M470 530 450 530"/>
<text x="480" y="555" font-size="15">CORNACEAE</text>
<a xlink:href="../map?method=mapLo&amp;fam=CORNACEAE" xlink:title="CORNACEAE">
<circle cx="470" cy="550" r="5" style="fill:red;stroke:black;stroke-width:0;"/>
</a>
<path style="stroke:black;;stroke-width:1;stroke-linecap:square" d="M470 550 270 550"/>
<text x="480" y="575" font-size="15">POLYGONACEAE</text>
<a xlink:href="../map?method=mapLo&amp;fam=POLYGONACEAE" xlink:title="POLYGONACEAE">
<circle cx="470" cy="570" r="5" style="fill:red;stroke:black;stroke-width:0;"/>
</a>
<path style="stroke:black;;stroke-width:1;stroke-linecap:square" d="M470 570 250 570"/>
<text x="480" y="595" font-size="15">SANTALACEAE</text>
<a xlink:href="../map?method=mapLo&amp;fam=SANTALACEAE" xlink:title="SANTALACEAE">
<circle cx="470" cy="590" r="5" style="fill:red;stroke:black;stroke-width:0;"/>
</a>
<path style="stroke:black;;stroke-width:1;stroke-linecap:square" d="M470 590 230 590"/>
<text x="480" y="615" font-size="15">ROSACEAE</text>
<a xlink:href="../map?method=mapLo&amp;fam=ROSACEAE" xlink:title="ROSACEAE">
<circle cx="470" cy="610" r="5" style="fill:red;stroke:black;stroke-width:0;"/>
</a>
<path style="stroke:black;;stroke-width:1;stroke-linecap:square" d="M470 610 370 610"/>
<text x="480" y="635" font-size="15">ULMACEAE</text>
<a xlink:href="../map?method=mapLo&amp;fam=ULMACEAE" xlink:title="ULMACEAE">
<circle cx="470" cy="630" r="5" style="fill:red;stroke:black;stroke-width:0;"/>
</a>
<path style="stroke:black;;stroke-width:1;stroke-linecap:square" d="M470 630 410 630"/>
<text x="480" y="655" font-size="15">MORACEAE</text>
<a xlink:href="../map?method=mapLo&amp;fam=MORACEAE" xlink:title="MORACEAE">
<circle cx="470" cy="650" r="5" style="fill:red;stroke:black;stroke-width:0;"/>
</a>
<path style="stroke:black;;stroke-width:1;stroke-linecap:square" d="M470 650 450 650"/>
<text x="480" y="675" font-size="15">URTICACEAE</text>
<a xlink:href="../map?method=mapLo&amp;fam=URTICACEAE" xlink:title="URTICACEAE">
<circle cx="470" cy="670" r="5" style="fill:red;stroke:black;stroke-width:0;"/>
</a>
<path style="stroke:black;;stroke-width:1;stroke-linecap:square" d="M470 670 450 670"/>
<text x="480" y="695" font-size="15">CANNABACEAE</text>
<a xlink:href="../map?method=mapLo&amp;fam=CANNABACEAE" xlink:title="CANNABACEAE">
<circle cx="470" cy="690" r="5" style="fill:red;stroke:black;stroke-width:0;"/>
</a>
<path style="stroke:black;;stroke-width:1;stroke-linecap:square" d="M470 690 430 690"/>
<text x="480" y="715" font-size="15">ELAEAGNACEAE</text>
<a xlink:href="../map?method=mapLo&amp;fam=ELAEAGNACEAE" xlink:title="ELAEAGNACEAE">
<circle cx="470" cy="710" r="5" style="fill:red;stroke:black;stroke-width:0;"/>
</a>
<path style="stroke:black;;stroke-width:1;stroke-linecap:square" d="M470 710 450 710"/>
<text x="480" y="735" font-size="15">RHAMNACEAE</text>
<a xlink:href="../map?method=mapLo&amp;fam=RHAMNACEAE" xlink:title="RHAMNACEAE">
<circle cx="470" cy="730" r="5" style="fill:red;stroke:black;stroke-width:0;"/>
</a>
<path style="stroke:black;;stroke-width:1;stroke-linecap:square" d="M470 730 450 730"/>
<text x="480" y="755" font-size="15">FAGACEAE</text>
<a xlink:href="../map?method=mapLo&amp;fam=FAGACEAE" xlink:title="FAGACEAE">
<circle cx="470" cy="750" r="5" style="fill:red;stroke:black;stroke-width:0;"/>
</a>
<path style="stroke:black;;stroke-width:1;stroke-linecap:square" d="M470 750 410 750"/>
<text x="480" y="775" font-size="15">BETULACEAE</text>
<a xlink:href="../map?method=mapLo&amp;fam=BETULACEAE" xlink:title="BETULACEAE">
<circle cx="470" cy="770" r="5" style="fill:red;stroke:black;stroke-width:0;"/>
</a>
<path style="stroke:black;;stroke-width:1;stroke-linecap:square" d="M470 770 430 770"/>
<text x="480" y="795" font-size="15">JUGLANDACEAE</text>
<a xlink:href="../map?method=mapLo&amp;fam=JUGLANDACEAE" xlink:title="JUGLANDACEAE">
<circle cx="470" cy="790" r="5" style="fill:red;stroke:black;stroke-width:0;"/>
</a>
<path style="stroke:black;;stroke-width:1;stroke-linecap:square" d="M470 790 450 790"/>
<text x="480" y="815" font-size="15">MYRICACEAE</text>
<a xlink:href="../map?method=mapLo&amp;fam=MYRICACEAE" xlink:title="MYRICACEAE">
<circle cx="470" cy="810" r="5" style="fill:red;stroke:black;stroke-width:0;"/>
</a>
<path style="stroke:black;;stroke-width:1;stroke-linecap:square" d="M470 810 450 810"/>
<text x="480" y="835" font-size="15">CORIARIACEAE</text>
<a xlink:href="../map?method=mapLo&amp;fam=CORIARIACEAE" xlink:title="CORIARIACEAE">
<circle cx="470" cy="830" r="5" style="fill:red;stroke:black;stroke-width:0;"/>
</a>
<path style="stroke:black;;stroke-width:1;stroke-linecap:square" d="M470 830 390 830"/>
<text x="480" y="855" font-size="15">FABACEAE</text>
<a xlink:href="../map?method=mapLo&amp;fam=FABACEAE" xlink:title="FABACEAE">
<circle cx="470" cy="850" r="5" style="fill:red;stroke:black;stroke-width:0;"/>
</a>
<path style="stroke:black;;stroke-width:1;stroke-linecap:square" d="M470 850 330 850"/>
<text x="480" y="875" font-size="15">SALICACEAE</text>
<a xlink:href="../map?method=mapLo&amp;fam=SALICACEAE" xlink:title="SALICACEAE">
<circle cx="470" cy="870" r="5" style="fill:red;stroke:black;stroke-width:0;"/>
</a>
<path style="stroke:black;;stroke-width:1;stroke-linecap:square" d="M470 870 450 870"/>
<text x="480" y="895" font-size="15">EUPHORBIACEAE</text>
<a xlink:href="../map?method=mapLo&amp;fam=EUPHORBIACEAE" xlink:title="EUPHORBIACEAE">
<circle cx="470" cy="890" r="5" style="fill:red;stroke:black;stroke-width:0;"/>
</a>
<path style="stroke:black;;stroke-width:1;stroke-linecap:square" d="M470 890 450 890"/>
<text x="480" y="915" font-size="15">CLUSIACEAE</text>
<a xlink:href="../map?method=mapLo&amp;fam=CLUSIACEAE" xlink:title="CLUSIACEAE">
<circle cx="470" cy="910" r="5" style="fill:red;stroke:black;stroke-width:0;"/>
</a>
<path style="stroke:black;;stroke-width:1;stroke-linecap:square" d="M470 910 450 910"/>
<text x="480" y="935" font-size="15">CEPHALOTACEAE</text>
<a xlink:href="../map?method=mapLo&amp;fam=CEPHALOTACEAE" xlink:title="CEPHALOTACEAE">
<circle cx="470" cy="930" r="5" style="fill:red;stroke:black;stroke-width:0;"/>
</a>
<path style="stroke:black;;stroke-width:1;stroke-linecap:square" d="M470 930 430 930"/>
<text x="480" y="955" font-size="15">CELASTRACEAE</text>
<a xlink:href="../map?method=mapLo&amp;fam=CELASTRACEAE" xlink:title="CELASTRACEAE">
<circle cx="470" cy="950" r="5" style="fill:red;stroke:black;stroke-width:0;"/>
</a>
<path style="stroke:black;;stroke-width:1;stroke-linecap:square" d="M470 950 410 950"/>
<text x="480" y="975" font-size="15">SAPINDACEAE</text>
<a xlink:href="../map?method=mapLo&amp;fam=SAPINDACEAE" xlink:title="SAPINDACEAE">
<circle cx="470" cy="970" r="5" style="fill:red;stroke:black;stroke-width:0;"/>
</a>
<path style="stroke:black;;stroke-width:1;stroke-linecap:square" d="M470 970 430 970"/>
<text x="480" y="995" font-size="15">RUTACEAE</text>
<a xlink:href="../map?method=mapLo&amp;fam=RUTACEAE" xlink:title="RUTACEAE">
<circle cx="470" cy="990" r="5" style="fill:red;stroke:black;stroke-width:0;"/>
</a>
<path style="stroke:black;;stroke-width:1;stroke-linecap:square" d="M470 990 450 990"/>
<text x="480" y="1015" font-size="15">SIMAROUBACEAE</text>
<a xlink:href="../map?method=mapLo&amp;fam=SIMAROUBACEAE" xlink:title="SIMAROUBACEAE">
<circle cx="470" cy="1010" r="5" style="fill:red;stroke:black;stroke-width:0;"/>
</a>
<path style="stroke:black;;stroke-width:1;stroke-linecap:square" d="M470 1010 450 1010"/>
<text x="480" y="1035" font-size="15">MELIACEAE</text>
<a xlink:href="../map?method=mapLo&amp;fam=MELIACEAE" xlink:title="MELIACEAE">
<circle cx="470" cy="1030" r="5" style="fill:red;stroke:black;stroke-width:0;"/>
</a>
<path style="stroke:black;;stroke-width:1;stroke-linecap:square" d="M470 1030 450 1030"/>
<text x="480" y="1055" font-size="15">ANACARDIACEAE</text>
<a xlink:href="../map?method=mapLo&amp;fam=ANACARDIACEAE" xlink:title="ANACARDIACEAE">
<circle cx="470" cy="1050" r="5" style="fill:red;stroke:black;stroke-width:0;"/>
</a>
<path style="stroke:black;;stroke-width:1;stroke-linecap:square" d="M470 1050 410 1050"/>
<text x="480" y="1075" font-size="15">THYMELAEACEAE</text>
<a xlink:href="../map?method=mapLo&amp;fam=THYMELAEACEAE" xlink:title="THYMELAEACEAE">
<circle cx="470" cy="1070" r="5" style="fill:red;stroke:black;stroke-width:0;"/>
</a>
<path style="stroke:black;;stroke-width:1;stroke-linecap:square" d="M470 1070 450 1070"/>
<text x="480" y="1095" font-size="15">MALVACEAE</text>
<a xlink:href="../map?method=mapLo&amp;fam=MALVACEAE" xlink:title="MALVACEAE">
<circle cx="470" cy="1090" r="5" style="fill:red;stroke:black;stroke-width:0;"/>
</a>
<path style="stroke:black;;stroke-width:1;stroke-linecap:square" d="M470 1090 450 1090"/>
<text x="480" y="1115" font-size="15">STAPHYLEACEAE</text>
<a xlink:href="../map?method=mapLo&amp;fam=STAPHYLEACEAE" xlink:title="STAPHYLEACEAE">
<circle cx="470" cy="1110" r="5" style="fill:red;stroke:black;stroke-width:0;"/>
</a>
<path style="stroke:black;;stroke-width:1;stroke-linecap:square" d="M470 1110 450 1110"/>
<text x="480" y="1135" font-size="15">STACHYURACEAE</text>
<a xlink:href="../map?method=mapLo&amp;fam=STACHYURACEAE" xlink:title="STACHYURACEAE">
<circle cx="470" cy="1130" r="5" style="fill:red;stroke:black;stroke-width:0;"/>
</a>
<path style="stroke:black;;stroke-width:1;stroke-linecap:square" d="M470 1130 450 1130"/>
<text x="480" y="1155" font-size="15">LYTHRACEAE</text>
<a xlink:href="../map?method=mapLo&amp;fam=LYTHRACEAE" xlink:title="LYTHRACEAE">
<circle cx="470" cy="1150" r="5" style="fill:red;stroke:black;stroke-width:0;"/>
</a>
<path style="stroke:black;;stroke-width:1;stroke-linecap:square" d="M470 1150 450 1150"/>
<text x="480" y="1175" font-size="15">GERANIACEAE</text>
<a xlink:href="../map?method=mapLo&amp;fam=GERANIACEAE" xlink:title="GERANIACEAE">
<circle cx="470" cy="1170" r="5" style="fill:red;stroke:black;stroke-width:0;"/>
</a>
<path style="stroke:black;;stroke-width:1;stroke-linecap:square" d="M470 1170 450 1170"/>
<text x="480" y="1195" font-size="15">VITACEAE</text>
<a xlink:href="../map?method=mapLo&amp;fam=VITACEAE" xlink:title="VITACEAE">
<circle cx="470" cy="1190" r="5" style="fill:red;stroke:black;stroke-width:0;"/>
</a>
<path style="stroke:black;;stroke-width:1;stroke-linecap:square" d="M470 1190 270 1190"/>
<text x="480" y="1215" font-size="15">SAXIFRAGACEAE</text>
<a xlink:href="../map?method=mapLo&amp;fam=SAXIFRAGACEAE" xlink:title="SAXIFRAGACEAE">
<circle cx="470" cy="1210" r="5" style="fill:red;stroke:black;stroke-width:0;"/>
</a>
<path style="stroke:black;;stroke-width:1;stroke-linecap:square" d="M470 1210 430 1210"/>
<text x="480" y="1235" font-size="15">HAMAMELIDACEAE</text>
<a xlink:href="../map?method=mapLo&amp;fam=HAMAMELIDACEAE" xlink:title="HAMAMELIDACEAE">
<circle cx="470" cy="1230" r="5" style="fill:red;stroke:black;stroke-width:0;"/>
</a>
<path style="stroke:black;;stroke-width:1;stroke-linecap:square" d="M470 1230 450 1230"/>
<text x="480" y="1255" font-size="15">CERCIDIPHYLLACEAE</text>
<a xlink:href="../map?method=mapLo&amp;fam=CERCIDIPHYLLACEAE" xlink:title="CERCIDIPHYLLACEAE">
<circle cx="470" cy="1250" r="5" style="fill:red;stroke:black;stroke-width:0;"/>
</a>
<path style="stroke:black;;stroke-width:1;stroke-linecap:square" d="M470 1250 450 1250"/>
<text x="480" y="1275" font-size="15">BUXACEAE</text>
<a xlink:href="../map?method=mapLo&amp;fam=BUXACEAE" xlink:title="BUXACEAE">
<circle cx="470" cy="1270" r="5" style="fill:red;stroke:black;stroke-width:0;"/>
</a>
<path style="stroke:black;;stroke-width:1;stroke-linecap:square" d="M470 1270 190 1270"/>
<text x="480" y="1295" font-size="15">TROCHODENDRACEAE</text>
<a xlink:href="../map?method=mapLo&amp;fam=TROCHODENDRACEAE" xlink:title="TROCHODENDRACEAE">
<circle cx="470" cy="1290" r="5" style="fill:red;stroke:black;stroke-width:0;"/>
</a>
<path style="stroke:black;;stroke-width:1;stroke-linecap:square" d="M470 1290 190 1290"/>
<text x="480" y="1315" font-size="15">PLATANACEAE</text>
<a xlink:href="../map?method=mapLo&amp;fam=PLATANACEAE" xlink:title="PLATANACEAE">
<circle cx="470" cy="1310" r="5" style="fill:red;stroke:black;stroke-width:0;"/>
</a>
<path style="stroke:black;;stroke-width:1;stroke-linecap:square" d="M470 1310 170 1310"/>
<text x="480" y="1335" font-size="15">SABIACEAE</text>
<a xlink:href="../map?method=mapLo&amp;fam=SABIACEAE" xlink:title="SABIACEAE">
<circle cx="470" cy="1330" r="5" style="fill:red;stroke:black;stroke-width:0;"/>
</a>
<path style="stroke:black;;stroke-width:1;stroke-linecap:square" d="M470 1330 170 1330"/>
<text x="480" y="1355" font-size="15">BERBERIDACEAE</text>
<a xlink:href="../map?method=mapLo&amp;fam=BERBERIDACEAE" xlink:title="BERBERIDACEAE">
<circle cx="470" cy="1350" r="5" style="fill:red;stroke:black;stroke-width:0;"/>
</a>
<path style="stroke:black;;stroke-width:1;stroke-linecap:square" d="M470 1350 450 1350"/>
<text x="480" y="1375" font-size="15">RANUNCULACEAE</text>
<a xlink:href="../map?method=mapLo&amp;fam=RANUNCULACEAE" xlink:title="RANUNCULACEAE">
<circle cx="470" cy="1370" r="5" style="fill:red;stroke:black;stroke-width:0;"/>
</a>
<path style="stroke:black;;stroke-width:1;stroke-linecap:square" d="M470 1370 450 1370"/>
<text x="480" y="1395" font-size="15">MENISPERMACEAE</text>
<a xlink:href="../map?method=mapLo&amp;fam=MENISPERMACEAE" xlink:title="MENISPERMACEAE">
<circle cx="470" cy="1390" r="5" style="fill:red;stroke:black;stroke-width:0;"/>
</a>
<path style="stroke:black;;stroke-width:1;stroke-linecap:square" d="M470 1390 430 1390"/>
<text x="480" y="1415" font-size="15">LARDIZABALACEAE</text>
<a xlink:href="../map?method=mapLo&amp;fam=LARDIZABALACEAE" xlink:title="LARDIZABALACEAE">
<circle cx="470" cy="1410" r="5" style="fill:red;stroke:black;stroke-width:0;"/>
</a>
<path style="stroke:black;;stroke-width:1;stroke-linecap:square" d="M470 1410 410 1410"/>
<text x="480" y="1435" font-size="15">PAPAVERACEAE</text>
<a xlink:href="../map?method=mapLo&amp;fam=PAPAVERACEAE" xlink:title="PAPAVERACEAE">
<circle cx="470" cy="1430" r="5" style="fill:red;stroke:black;stroke-width:0;"/>
</a>
<path style="stroke:black;;stroke-width:1;stroke-linecap:square" d="M470 1430 390 1430"/>
<text x="480" y="1455" font-size="15">EUPTELEACEAE</text>
<a xlink:href="../map?method=mapLo&amp;fam=EUPTELEACEAE" xlink:title="EUPTELEACEAE">
<circle cx="470" cy="1450" r="5" style="fill:red;stroke:black;stroke-width:0;"/>
</a>
<path style="stroke:black;;stroke-width:1;stroke-linecap:square" d="M470 1450 370 1450"/>
<text x="480" y="1475" font-size="15">POACEAE</text>
<a xlink:href="../map?method=mapLo&amp;fam=POACEAE" xlink:title="POACEAE">
<circle cx="470" cy="1470" r="5" style="fill:red;stroke:black;stroke-width:0;"/>
</a>
<path style="stroke:black;;stroke-width:1;stroke-linecap:square" d="M470 1470 430 1470"/>
<text x="480" y="1495" font-size="15">LILIACEAE</text>
<a xlink:href="../map?method=mapLo&amp;fam=LILIACEAE" xlink:title="LILIACEAE">
<circle cx="470" cy="1490" r="5" style="fill:red;stroke:black;stroke-width:0;"/>
</a>
<path style="stroke:black;;stroke-width:1;stroke-linecap:square" d="M470 1490 450 1490"/>
<text x="480" y="1515" font-size="15">SMILACACEAE</text>
<a xlink:href="../map?method=mapLo&amp;fam=SMILACACEAE" xlink:title="SMILACACEAE">
<circle cx="470" cy="1510" r="5" style="fill:red;stroke:black;stroke-width:0;"/>
</a>
<path style="stroke:black;;stroke-width:1;stroke-linecap:square" d="M470 1510 450 1510"/>
<text x="480" y="1535" font-size="15">ARACEAE</text>
<a xlink:href="../map?method=mapLo&amp;fam=ARACEAE" xlink:title="ARACEAE">
<circle cx="470" cy="1530" r="5" style="fill:red;stroke:black;stroke-width:0;"/>
</a>
<path style="stroke:black;;stroke-width:1;stroke-linecap:square" d="M470 1530 410 1530"/>
<text x="480" y="1555" font-size="15">MAGNOLIACEAE</text>
<a xlink:href="../map?method=mapLo&amp;fam=MAGNOLIACEAE" xlink:title="MAGNOLIACEAE">
<circle cx="470" cy="1550" r="5" style="fill:red;stroke:black;stroke-width:0;"/>
</a>
<path style="stroke:black;;stroke-width:1;stroke-linecap:square" d="M470 1550 450 1550"/>
<text x="480" y="1575" font-size="15">ANNONACEAE</text>
<a xlink:href="../map?method=mapLo&amp;fam=ANNONACEAE" xlink:title="ANNONACEAE">
<circle cx="470" cy="1570" r="5" style="fill:red;stroke:black;stroke-width:0;"/>
</a>
<path style="stroke:black;;stroke-width:1;stroke-linecap:square" d="M470 1570 450 1570"/>
<text x="480" y="1595" font-size="15">LAURACEAE</text>
<a xlink:href="../map?method=mapLo&amp;fam=LAURACEAE" xlink:title="LAURACEAE">
<circle cx="470" cy="1590" r="5" style="fill:red;stroke:black;stroke-width:0;"/>
</a>
<path style="stroke:black;;stroke-width:1;stroke-linecap:square" d="M470 1590 450 1590"/>
<text x="480" y="1615" font-size="15">CALYCANTHACEAE</text>
<a xlink:href="../map?method=mapLo&amp;fam=CALYCANTHACEAE" xlink:title="CALYCANTHACEAE">
<circle cx="470" cy="1610" r="5" style="fill:red;stroke:black;stroke-width:0;"/>
</a>
<path style="stroke:black;;stroke-width:1;stroke-linecap:square" d="M470 1610 450 1610"/>
<text x="480" y="1635" font-size="15">ARISTOLOCHIACEAE</text>
<a xlink:href="../map?method=mapLo&amp;fam=ARISTOLOCHIACEAE" xlink:title="ARISTOLOCHIACEAE">
<circle cx="470" cy="1630" r="5" style="fill:red;stroke:black;stroke-width:0;"/>
</a>
<path style="stroke:black;;stroke-width:1;stroke-linecap:square" d="M470 1630 410 1630"/>
<text x="480" y="1655" font-size="15">PINACEAE</text>
<a xlink:href="../map?method=mapLo&amp;fam=PINACEAE" xlink:title="PINACEAE">
<circle cx="470" cy="1650" r="5" style="fill:red;stroke:black;stroke-width:0;"/>
</a>
<path style="stroke:black;;stroke-width:1;stroke-linecap:square" d="M470 1650 430 1650"/>
<text x="480" y="1675" font-size="15">CUPRESSACEAE</text>
<a xlink:href="../map?method=mapLo&amp;fam=CUPRESSACEAE" xlink:title="CUPRESSACEAE">
<circle cx="470" cy="1670" r="5" style="fill:red;stroke:black;stroke-width:0;"/>
</a>
<path style="stroke:black;;stroke-width:1;stroke-linecap:square" d="M470 1670 450 1670"/>
<text x="480" y="1695" font-size="15">TAXACEAE</text>
<a xlink:href="../map?method=mapLo&amp;fam=TAXACEAE" xlink:title="TAXACEAE">
<circle cx="470" cy="1690" r="5" style="fill:red;stroke:black;stroke-width:0;"/>
</a>
<path style="stroke:black;;stroke-width:1;stroke-linecap:square" d="M470 1690 450 1690"/>
<text x="480" y="1715" font-size="15">EPHEDRACEAE</text>
<a xlink:href="../map?method=mapLo&amp;fam=EPHEDRACEAE" xlink:title="EPHEDRACEAE">
<circle cx="470" cy="1710" r="5" style="fill:red;stroke:black;stroke-width:0;"/>
</a>
<path style="stroke:black;;stroke-width:1;stroke-linecap:square" d="M470 1710 410 1710"/>
<text x="480" y="1735" font-size="15">GINKGOACEAE</text>
<a xlink:href="../map?method=mapLo&amp;fam=GINKGOACEAE" xlink:title="GINKGOACEAE">
<circle cx="470" cy="1730" r="5" style="fill:red;stroke:black;stroke-width:0;"/>
</a>
<path style="stroke:black;;stroke-width:1;stroke-linecap:square" d="M470 1730 390 1730"/>
<path style="stroke:black;;stroke-width:1;stroke-linecap:square" d="M450 30 450 70"/>
<path style="stroke:black;;stroke-width:1;stroke-linecap:square" d="M450 50 430 50"/>
<path style="stroke:black;;stroke-width:1;stroke-linecap:square" d="M450 170 450 190"/>
<path style="stroke:black;;stroke-width:1;stroke-linecap:square" d="M450 180 430 180"/>
<path style="stroke:black;;stroke-width:1;stroke-linecap:square" d="M450 290 450 310"/>
<path style="stroke:black;;stroke-width:1;stroke-linecap:square" d="M450 300 430 300"/>
<path style="stroke:black;;stroke-width:1;stroke-linecap:square" d="M450 370 450 390"/>
<path style="stroke:black;;stroke-width:1;stroke-linecap:square" d="M450 380 430 380"/>
<path style="stroke:black;;stroke-width:1;stroke-linecap:square" d="M450 450 450 470"/>
<path style="stroke:black;;stroke-width:1;stroke-linecap:square" d="M450 460 390 460"/>
<path style="stroke:black;;stroke-width:1;stroke-linecap:square" d="M450 510 450 530"/>
<path style="stroke:black;;stroke-width:1;stroke-linecap:square" d="M450 520 370 520"/>
<path style="stroke:black;;stroke-width:1;stroke-linecap:square" d="M450 650 450 670"/>
<path style="stroke:black;;stroke-width:1;stroke-linecap:square" d="M450 660 430 660"/>
<path style="stroke:black;;stroke-width:1;stroke-linecap:square" d="M450 710 450 730"/>
<path style="stroke:black;;stroke-width:1;stroke-linecap:square" d="M450 720 390 720"/>
<path style="stroke:black;;stroke-width:1;stroke-linecap:square" d="M450 790 450 810"/>
<path style="stroke:black;;stroke-width:1;stroke-linecap:square" d="M450 800 430 800"/>
<path style="stroke:black;;stroke-width:1;stroke-linecap:square" d="M450 870 450 910"/>
<path style="stroke:black;;stroke-width:1;stroke-linecap:square" d="M450 890 430 890"/>
<path style="stroke:black;;stroke-width:1;stroke-linecap:square" d="M450 990 450 1030"/>
<path style="stroke:black;;stroke-width:1;stroke-linecap:square" d="M450 1010 430 1010"/>
<path style="stroke:black;;stroke-width:1;stroke-linecap:square" d="M450 1070 450 1090"/>
<path style="stroke:black;;stroke-width:1;stroke-linecap:square" d="M450 1080 390 1080"/>
<path style="stroke:black;;stroke-width:1;stroke-linecap:square" d="M450 1110 450 1130"/>
<path style="stroke:black;;stroke-width:1;stroke-linecap:square" d="M450 1120 370 1120"/>
<path style="stroke:black;;stroke-width:1;stroke-linecap:square" d="M450 1150 450 1170"/>
<path style="stroke:black;;stroke-width:1;stroke-linecap:square" d="M450 1160 350 1160"/>
<path style="stroke:black;;stroke-width:1;stroke-linecap:square" d="M450 1230 450 1250"/>
<path style="stroke:black;;stroke-width:1;stroke-linecap:square" d="M450 1240 430 1240"/>
<path style="stroke:black;;stroke-width:1;stroke-linecap:square" d="M450 1350 450 1370"/>
<path style="stroke:black;;stroke-width:1;stroke-linecap:square" d="M450 1360 430 1360"/>
<path style="stroke:black;;stroke-width:1;stroke-linecap:square" d="M450 1490 450 1510"/>
<path style="stroke:black;;stroke-width:1;stroke-linecap:square" d="M450 1500 430 1500"/>
<path style="stroke:black;;stroke-width:1;stroke-linecap:square" d="M450 1550 450 1570"/>
<path style="stroke:black;;stroke-width:1;stroke-linecap:square" d="M450 1560 430 1560"/>
<path style="stroke:black;;stroke-width:1;stroke-linecap:square" d="M450 1590 450 1610"/>
<path style="stroke:black;;stroke-width:1;stroke-linecap:square" d="M450 1600 430 1600"/>
<path style="stroke:black;;stroke-width:1;stroke-linecap:square" d="M450 1670 450 1690"/>
<path style="stroke:black;;stroke-width:1;stroke-linecap:square" d="M450 1680 430 1680"/>
<path style="stroke:black;;stroke-width:1;stroke-linecap:square" d="M430 50 430 90"/>
<path style="stroke:black;;stroke-width:1;stroke-linecap:square" d="M430 70 410 70"/>
<path style="stroke:black;;stroke-width:1;stroke-linecap:square" d="M430 180 430 210"/>
<path style="stroke:black;;stroke-width:1;stroke-linecap:square" d="M430 195 410 195"/>
<path style="stroke:black;;stroke-width:1;stroke-linecap:square" d="M430 270 430 300"/>
<path style="stroke:black;;stroke-width:1;stroke-linecap:square" d="M430 285 350 285"/>
<path style="stroke:black;;stroke-width:1;stroke-linecap:square" d="M430 380 430 410"/>
<path style="stroke:black;;stroke-width:1;stroke-linecap:square" d="M430 395 410 395"/>
<path style="stroke:black;;stroke-width:1;stroke-linecap:square" d="M430 660 430 690"/>
<path style="stroke:black;;stroke-width:1;stroke-linecap:square" d="M430 675 410 675"/>
<path style="stroke:black;;stroke-width:1;stroke-linecap:square" d="M430 770 430 800"/>
<path style="stroke:black;;stroke-width:1;stroke-linecap:square" d="M430 785 410 785"/>
<path style="stroke:black;;stroke-width:1;stroke-linecap:square" d="M430 890 430 930"/>
<path style="stroke:black;;stroke-width:1;stroke-linecap:square" d="M430 910 410 910"/>
<path style="stroke:black;;stroke-width:1;stroke-linecap:square" d="M430 970 430 1010"/>
<path style="stroke:black;;stroke-width:1;stroke-linecap:square" d="M430 990 410 990"/>
<path style="stroke:black;;stroke-width:1;stroke-linecap:square" d="M430 1210 430 1240"/>
<path style="stroke:black;;stroke-width:1;stroke-linecap:square" d="M430 1225 250 1225"/>
<path style="stroke:black;;stroke-width:1;stroke-linecap:square" d="M430 1360 430 1390"/>
<path style="stroke:black;;stroke-width:1;stroke-linecap:square" d="M430 1375 410 1375"/>
<path style="stroke:black;;stroke-width:1;stroke-linecap:square" d="M430 1470 430 1500"/>
<path style="stroke:black;;stroke-width:1;stroke-linecap:square" d="M430 1485 410 1485"/>
<path style="stroke:black;;stroke-width:1;stroke-linecap:square" d="M430 1560 430 1600"/>
<path style="stroke:black;;stroke-width:1;stroke-linecap:square" d="M430 1580 410 1580"/>
<path style="stroke:black;;stroke-width:1;stroke-linecap:square" d="M430 1650 430 1680"/>
<path style="stroke:black;;stroke-width:1;stroke-linecap:square" d="M430 1665 410 1665"/>
<path style="stroke:black;;stroke-width:1;stroke-linecap:square" d="M410 70 410 110"/>
<path style="stroke:black;;stroke-width:1;stroke-linecap:square" d="M410 90 390 90"/>
<path style="stroke:black;;stroke-width:1;stroke-linecap:square" d="M410 195 410 230"/>
<path style="stroke:black;;stroke-width:1;stroke-linecap:square" d="M410 212.5 390 212.5"/>
<path style="stroke:black;;stroke-width:1;stroke-linecap:square" d="M410 395 410 430"/>
<path style="stroke:black;;stroke-width:1;stroke-linecap:square" d="M410 412.5 390 412.5"/>
<path style="stroke:black;;stroke-width:1;stroke-linecap:square" d="M410 630 410 675"/>
<path style="stroke:black;;stroke-width:1;stroke-linecap:square" d="M410 652.5 390 652.5"/>
<path style="stroke:black;;stroke-width:1;stroke-linecap:square" d="M410 750 410 785"/>
<path style="stroke:black;;stroke-width:1;stroke-linecap:square" d="M410 767.5 390 767.5"/>
<path style="stroke:black;;stroke-width:1;stroke-linecap:square" d="M410 910 410 950"/>
<path style="stroke:black;;stroke-width:1;stroke-linecap:square" d="M410 930 310 930"/>
<path style="stroke:black;;stroke-width:1;stroke-linecap:square" d="M410 990 410 1050"/>
<path style="stroke:black;;stroke-width:1;stroke-linecap:square" d="M410 1020 390 1020"/>
<path style="stroke:black;;stroke-width:1;stroke-linecap:square" d="M410 1375 410 1410"/>
<path style="stroke:black;;stroke-width:1;stroke-linecap:square" d="M410 1392.5 390 1392.5"/>
<path style="stroke:black;;stroke-width:1;stroke-linecap:square" d="M410 1485 410 1530"/>
<path style="stroke:black;;stroke-width:1;stroke-linecap:square" d="M410 1507.5 130 1507.5"/>
<path style="stroke:black;;stroke-width:1;stroke-linecap:square" d="M410 1580 410 1630"/>
<path style="stroke:black;;stroke-width:1;stroke-linecap:square" d="M410 1605 110 1605"/>
<path style="stroke:black;;stroke-width:1;stroke-linecap:square" d="M410 1665 410 1710"/>
<path style="stroke:black;;stroke-width:1;stroke-linecap:square" d="M410 1687.5 390 1687.5"/>
<path style="stroke:black;;stroke-width:1;stroke-linecap:square" d="M390 90 390 130"/>
<path style="stroke:black;;stroke-width:1;stroke-linecap:square" d="M390 110 310 110"/>
<path style="stroke:black;;stroke-width:1;stroke-linecap:square" d="M390 150 390 212.5"/>
<path style="stroke:black;;stroke-width:1;stroke-linecap:square" d="M390 181.25 370 181.25"/>
<path style="stroke:black;;stroke-width:1;stroke-linecap:square" d="M390 412.5 390 490"/>
<path style="stroke:black;;stroke-width:1;stroke-linecap:square" d="M390 451.25 370 451.25"/>
<path style="stroke:black;;stroke-width:1;stroke-linecap:square" d="M390 652.5 390 720"/>
<path style="stroke:black;;stroke-width:1;stroke-linecap:square" d="M390 686.25 370 686.25"/>
<path style="stroke:black;;stroke-width:1;stroke-linecap:square" d="M390 767.5 390 830"/>
<path style="stroke:black;;stroke-width:1;stroke-linecap:square" d="M390 798.75 350 798.75"/>
<path style="stroke:black;;stroke-width:1;stroke-linecap:square" d="M390 1020 390 1080"/>
<path style="stroke:black;;stroke-width:1;stroke-linecap:square" d="M390 1050 370 1050"/>
<path style="stroke:black;;stroke-width:1;stroke-linecap:square" d="M390 1392.5 390 1430"/>
<path style="stroke:black;;stroke-width:1;stroke-linecap:square" d="M390 1411.25 370 1411.25"/>
<path style="stroke:black;;stroke-width:1;stroke-linecap:square" d="M390 1687.5 390 1730"/>
<path style="stroke:black;;stroke-width:1;stroke-linecap:square" d="M390 1708.75 90 1708.75"/>
<path style="stroke:black;;stroke-width:1;stroke-linecap:square" d="M370 181.25 370 250"/>
<path style="stroke:black;;stroke-width:1;stroke-linecap:square" d="M370 215.625 350 215.625"/>
<path style="stroke:black;;stroke-width:1;stroke-linecap:square" d="M370 451.25 370 520"/>
<path style="stroke:black;;stroke-width:1;stroke-linecap:square" d="M370 485.625 290 485.625"/>
<path style="stroke:black;;stroke-width:1;stroke-linecap:square" d="M370 610 370 686.25"/>
<path style="stroke:black;;stroke-width:1;stroke-linecap:square" d="M370 648.125 350 648.125"/>
<path style="stroke:black;;stroke-width:1;stroke-linecap:square" d="M370 1050 370 1120"/>
<path style="stroke:black;;stroke-width:1;stroke-linecap:square" d="M370 1085 350 1085"/>
<path style="stroke:black;;stroke-width:1;stroke-linecap:square" d="M370 1411.25 370 1450"/>
<path style="stroke:black;;stroke-width:1;stroke-linecap:square" d="M370 1430.62 150 1430.62"/>
<path style="stroke:black;;stroke-width:1;stroke-linecap:square" d="M350 215.625 350 330"/>
<path style="stroke:black;;stroke-width:1;stroke-linecap:square" d="M350 272.812 330 272.812"/>
<path style="stroke:black;;stroke-width:1;stroke-linecap:square" d="M350 648.125 350 798.75"/>
<path style="stroke:black;;stroke-width:1;stroke-linecap:square" d="M350 723.438 330 723.438"/>
<path style="stroke:black;;stroke-width:1;stroke-linecap:square" d="M350 1085 350 1160"/>
<path style="stroke:black;;stroke-width:1;stroke-linecap:square" d="M350 1122.5 290 1122.5"/>
<path style="stroke:black;;stroke-width:1;stroke-linecap:square" d="M330 272.812 330 350"/>
<path style="stroke:black;;stroke-width:1;stroke-linecap:square" d="M330 311.406 310 311.406"/>
<path style="stroke:black;;stroke-width:1;stroke-linecap:square" d="M330 723.438 330 850"/>
<path style="stroke:black;;stroke-width:1;stroke-linecap:square" d="M330 786.719 310 786.719"/>
<path style="stroke:black;;stroke-width:1;stroke-linecap:square" d="M310 110 310 311.406"/>
<path style="stroke:black;;stroke-width:1;stroke-linecap:square" d="M310 210.703 290 210.703"/>
<path style="stroke:black;;stroke-width:1;stroke-linecap:square" d="M310 786.719 310 930"/>
<path style="stroke:black;;stroke-width:1;stroke-linecap:square" d="M310 858.359 290 858.359"/>
<path style="stroke:black;;stroke-width:1;stroke-linecap:square" d="M290 210.703 290 485.625"/>
<path style="stroke:black;;stroke-width:1;stroke-linecap:square" d="M290 348.164 270 348.164"/>
<path style="stroke:black;;stroke-width:1;stroke-linecap:square" d="M290 858.359 290 1122.5"/>
<path style="stroke:black;;stroke-width:1;stroke-linecap:square" d="M290 990.43 270 990.43"/>
<path style="stroke:black;;stroke-width:1;stroke-linecap:square" d="M270 348.164 270 550"/>
<path style="stroke:black;;stroke-width:1;stroke-linecap:square" d="M270 449.082 250 449.082"/>
<path style="stroke:black;;stroke-width:1;stroke-linecap:square" d="M270 990.43 270 1190"/>
<path style="stroke:black;;stroke-width:1;stroke-linecap:square" d="M270 1090.21 250 1090.21"/>
<path style="stroke:black;;stroke-width:1;stroke-linecap:square" d="M250 449.082 250 570"/>
<path style="stroke:black;;stroke-width:1;stroke-linecap:square" d="M250 509.541 230 509.541"/>
<path style="stroke:black;;stroke-width:1;stroke-linecap:square" d="M250 1090.21 250 1225"/>
<path style="stroke:black;;stroke-width:1;stroke-linecap:square" d="M250 1157.61 210 1157.61"/>
<path style="stroke:black;;stroke-width:1;stroke-linecap:square" d="M230 509.541 230 590"/>
<path style="stroke:black;;stroke-width:1;stroke-linecap:square" d="M230 549.771 210 549.771"/>
<path style="stroke:black;;stroke-width:1;stroke-linecap:square" d="M210 549.771 210 1157.61"/>
<path style="stroke:black;;stroke-width:1;stroke-linecap:square" d="M210 853.689 190 853.689"/>
<path style="stroke:black;;stroke-width:1;stroke-linecap:square" d="M190 853.689 190 1290"/>
<path style="stroke:black;;stroke-width:1;stroke-linecap:square" d="M190 1071.84 170 1071.84"/>
<path style="stroke:black;;stroke-width:1;stroke-linecap:square" d="M170 1071.84 170 1330"/>
<path style="stroke:black;;stroke-width:1;stroke-linecap:square" d="M170 1200.92 150 1200.92"/>
<path style="stroke:black;;stroke-width:1;stroke-linecap:square" d="M150 1200.92 150 1430.62"/>
<path style="stroke:black;;stroke-width:1;stroke-linecap:square" d="M150 1315.77 130 1315.77"/>
<path style="stroke:black;;stroke-width:1;stroke-linecap:square" d="M130 1315.77 130 1507.5"/>
<path style="stroke:black;;stroke-width:1;stroke-linecap:square" d="M130 1411.64 110 1411.64"/>
<path style="stroke:black;;stroke-width:1;stroke-linecap:square" d="M110 1411.64 110 1605"/>
<path style="stroke:black;;stroke-width:1;stroke-linecap:square" d="M110 1508.32 90 1508.32"/>
<path style="stroke:black;;stroke-width:1;stroke-linecap:square" d="M90 1508.32 90 1708.75"/>
<path style="stroke:black;;stroke-width:1;stroke-linecap:square" d="M90 1608.53 70 1608.53"/>
<path style="stroke:black;;stroke-width:1;stroke-linecap:square" d="M70 1608.53 70 1608.53"/>
<path style="stroke:black;;stroke-width:1;stroke-linecap:square" d="M70 1608.53 30 1608.53"/>
</svg>
